<?xml version="1.0" encoding="UTF-8"?>
<svg id="Layer_2" data-name="Layer 2" xmlns="http://www.w3.org/2000/svg" viewBox="0 0 435 175">
  <defs>
    <style>
      .cls-1 {
        fill: none;
      }

      .cls-1, .cls-2, .cls-3, .cls-4, .cls-5, .cls-6, .cls-7 {
        stroke-width: 0px;
      }

      .cls-2 {
        fill: #04cff1;
      }

      .cls-3 {
        fill: #22d401;
      }

      .cls-4 {
        fill: #d100b5;
      }

      .cls-5 {
        fill: #ff8500;
      }

      .cls-6 {
        fill: #ff46d6;
      }

      .cls-7 {
        fill: #00b29d;
      }
    </style>
  </defs>
  <g id="Layer_1-2" data-name="Layer 1">
    <g>
      <g>
        <path class="cls-4" d="M34.6,48.43c-.55-.32-11.55-7.99-11.55-17.8s6.41-17.72,21.28-17.72c11.95,0,18.28,7.36,20.33,11.47l-9.89,7.28s12.5,6.25,12.5,19.46-12.18,19.23-21.92,19.23c-15.11,0-21.12-15.9-21.12-15.9l10.36-6.01Z"/>
        <path class="cls-3" d="M90.93,29.75c13.92,0,17.64,14.95,17.64,25.16l-17.64,3.8,12.97,6.25-3.24,7.04c-16.38,0-31.01-5.78-31.01-22.23,0-10.21,5.85-20.02,21.28-20.02ZM95.12,49.14s-1.19-5.78-6.96-4.19c-4.35,1.27-2.85,7.04-2.85,7.04l9.81-2.85Z"/>
        <path class="cls-2" d="M132.22,29.75c13.92,0,17.64,14.95,17.64,25.16l-17.64,3.8,12.98,6.25-3.24,7.04c-16.38,0-31.01-5.78-31.01-22.23,0-10.21,5.85-20.02,21.28-20.02ZM136.41,49.14s-1.19-5.78-6.96-4.19c-4.35,1.27-2.85,7.04-2.85,7.04l9.81-2.85Z"/>
        <path class="cls-6" d="M171.77,32.76c.32-13.85,18.75-19.15,18.75-19.15l2.93,3.16-9.18,9.81s7.99,2.77,7.99,9.73c0,5.85-4.11,9.42-10.44,9.42-4.51,0-10.21-3.88-10.05-12.98Z"/>
        <path class="cls-5" d="M198.91,15.12l8.31-.24,7.12,7.28.63-6.8,26.27-.24.08,55.38-31.49-.4-4.98-6.49-.63,7.12h-6.09l.79-55.62Z"/>
        <path class="cls-2" d="M245.66,42.57l9.18-9.81s-7.99-2.77-7.99-9.73c0-5.85,4.11-9.41,10.44-9.41,4.51,0,10.21,3.88,10.05,12.98-.32,13.85-18.75,19.15-18.75,19.15l-2.93-3.16Z"/>
        <path class="cls-3" d="M300.72,48.43c-.55-.32-11.55-7.99-11.55-17.8s6.41-17.72,21.28-17.72c11.95,0,18.28,7.36,20.33,11.47l-9.89,7.28s12.5,6.25,12.5,19.46-12.18,19.23-21.92,19.23c-15.11,0-21.12-15.9-21.12-15.9l10.37-6.01Z"/>
        <path class="cls-4" d="M335.77,50.64c0-17.09,17.09-20.89,32.2-19.94l.87,39.8h-9.57l-1.74-5.78-4.67,5.54c-7.04,0-17.09-6.17-17.09-19.62ZM356.81,60.13l-.4-9.65s-5.14.47-5.14,4.51c0,5.22,5.54,5.14,5.54,5.14Z"/>
        <path class="cls-6" d="M370.41,30.31h8.23s3.24,7.44,3.24,7.28l3.32-7.04,26.74-.24-18.2,56.01h-22.39l6.73-24.13-7.67-31.88Z"/>
        <path class="cls-7" d="M31.34,131.8s-6.79-3.36-6.79-10.88c0-5.91,4.31-11.68,15.91-11.68,10.29,0,15.62,5.33,17.37,8.1l-6.64,6.42s9.49,4.09,9.49,13.07c0,8.32-8.54,12.56-17.81,12.56-13.36,0-17.37-11.53-17.37-11.53l5.84-6.06Z"/>
        <path class="cls-7" d="M65.72,120.42l-5.04.22.58-9.27,4.82-.29.22-8.32,16.94-.58.22,9.12,8.25-.07.15,8.25-8.61.37.58,14.09h9.2c.07,4.02-1.24,15.11-14.89,15.11-12.56,0-12.63-9.49-12.56-15.48l.15-13.14Z"/>
        <path class="cls-7" d="M111.93,110.63c11.24,0,18.4,7.45,18.4,19.27,0,7.3-1.46,18.18-17.23,18.18s-18.18-11.1-18.18-18.54c0-8.61,5.77-18.91,17.01-18.91ZM112.95,132.75c2.04,0,3.8-1.68,3.8-3.72s-1.75-3.8-3.8-3.8-3.72,1.75-3.72,3.8,1.68,3.72,3.72,3.72Z"/>
        <path class="cls-7" d="M134.34,110.42h15.18l.15,5.47,8.83-4.89c5.04,3.21,4.75,18.03-7.01,18.98l.44,17.45-18.32.29.73-37.3Z"/>
        <path class="cls-7" d="M162.01,110.42h7.59s2.99,6.86,2.99,6.72l3.07-6.5,24.67-.22-16.79,51.68h-20.66l6.21-22.26-7.08-29.42Z"/>
        <path class="cls-7" d="M219.61,110.05s5.62-1.46,16.86-1.46c25.77,0,38.91,9.71,37.23,38.91h-7.08l-3.58-6.79-4.01,6.57-5.55-6.57-4.01,7.15-30.15-.07.29-37.74Z"/>
        <path class="cls-7" d="M275.31,129.18c0-15.77,15.77-19.27,29.71-18.4l.8,36.72h-8.83l-1.61-5.33-4.31,5.11c-6.5,0-15.77-5.69-15.77-18.1ZM294.72,137.94l-.37-8.91s-4.75.44-4.75,4.16c0,4.82,5.11,4.75,5.11,4.75Z"/>
        <path class="cls-7" d="M309.47,95.45l15.69.37.22,19.78,4.45-3.87h14.75l-9.2,17.96,8.54,17.59h-16.28l-3.07-4.09-1.46,3.87-13.65-.15v-51.46Z"/>
        <path class="cls-7" d="M362.76,109.91c12.85,0,16.28,13.8,16.28,23.21l-16.28,3.5,11.97,5.77-2.99,6.5c-15.11,0-28.62-5.33-28.62-20.51,0-9.42,5.4-18.47,19.64-18.47ZM366.63,127.79s-1.09-5.33-6.42-3.87c-4.01,1.17-2.63,6.5-2.63,6.5l9.05-2.63Z"/>
        <path class="cls-7" d="M383.05,110.42h15.18l.15,5.47,8.83-4.89c5.04,3.21,4.75,18.03-7.01,18.98l.44,17.45-18.32.29.73-37.3Z"/>
      </g>
      <rect class="cls-1" width="435" height="175"/>
    </g>
  </g>
</svg>